<svg xmlns="http://www.w3.org/2000/svg" xmlns:xlink="http://www.w3.org/1999/xlink" width="1589.828" height="892.263" viewBox="0 0 1589.828 892.263">
  <defs>
    <clipPath id="clip-path">
      <rect id="Rectangle_54" data-name="Rectangle 54" width="790.287" height="378.61" fill="none"/>
    </clipPath>
    <clipPath id="clip-path-2">
      <rect id="Rectangle_55" data-name="Rectangle 55" width="744.999" height="508.538" fill="none"/>
    </clipPath>
  </defs>
  <g id="Group_94399" data-name="Group 94399" transform="translate(144 88.52)">
    <g id="Group_94389" data-name="Group 94389" transform="translate(-144 390.391)">
      <g id="Group_94388" data-name="Group 94388" transform="translate(0 3)" clip-path="url(#clip-path)">
        <path id="Path_21" data-name="Path 21" d="M154.048,124.487,260.616,17.919a61.179,61.179,0,0,1,86.519,86.521L298.6,152.976a26.859,26.859,0,0,0,37.985,37.985l10.552-10.551a55.21,55.21,0,0,1,78.079,78.079l-43.26,43.26a11.938,11.938,0,0,0,16.883,16.882L504.35,213.118a47.749,47.749,0,0,1,67.528,67.528l-28.489,28.489a10.445,10.445,0,0,0,14.772,14.772l2.362-2.362a127.97,127.97,0,0,1,180.977,0l48.788,48.787H0S163.544,133.983,154.048,124.487" transform="translate(0 0)" fill="rgba(36,61,100,0.03)"/>
        <path id="Path_22" data-name="Path 22" d="M239.144,179.747a26.593,26.593,0,1,1-26.592-26.592,26.592,26.592,0,0,1,26.592,26.592" transform="translate(55.804 45.96)" fill="#fff"/>
        <path id="Path_23" data-name="Path 23" d="M163.6,312.444c1.84-.614,71.331-70.861,97.913-97.778a14.436,14.436,0,1,1,20.472,20.359l-21.845,21.847a7.242,7.242,0,1,0,10.242,10.242l9.1-9.1a15.826,15.826,0,0,1,22.381,22.381,6.7,6.7,0,0,0,0,9.483l25.605,25.605H161.328" transform="translate(48.412 63.131)" fill="rgba(24,40,62,0.06)"/>
      </g>
    </g>
    <path id="Path_29" data-name="Path 29" d="M75.035,0a75.027,75.027,0,1,0,75.02,75.02A75.113,75.113,0,0,0,75.035,0m0,135.255A60.235,60.235,0,1,1,135.27,75.021a60.239,60.239,0,0,1-60.235,60.235" transform="translate(400.871 -88.521)" fill="#f3f4f5"/>
    <g id="Group_94391" data-name="Group 94391" transform="matrix(0.998, 0.07, -0.07, 0.998, 702.644, -88.52)">
      <g id="Group_94390" data-name="Group 94390" clip-path="url(#clip-path-2)">
        <path id="Path_24" data-name="Path 24" d="M0,56.606,37.106,93.712a65.878,65.878,0,0,0,93.167,0L151.529,72.45a11.487,11.487,0,0,1,16.246,0l.211.211a11.845,11.845,0,0,1,.047,16.779l-67.453,67.449a60.088,60.088,0,1,0,84.977,84.978L391.418,36l45.326,6.177-74.94,74.94A83.76,83.76,0,0,0,480.26,235.574L594.852,120.984a12.746,12.746,0,1,1,18.026,18.026l-169.7,169.7a47.342,47.342,0,0,0,66.952,66.952L627.685,258.107A13.657,13.657,0,1,1,647,277.421l-2.059,2.059a99.97,99.97,0,0,0,0,141.377l87.681,87.681V0" fill="#f3f4f5"/>
        <path id="Path_25" data-name="Path 25" d="M222.081,162.726A11.779,11.779,0,1,1,210.3,150.947a11.779,11.779,0,0,1,11.779,11.779" transform="translate(82.394 62.648)" fill="#f3f4f5"/>
        <path id="Path_26" data-name="Path 26" d="M408.7,33.639l-86.17,86.168a20.478,20.478,0,1,0,28.96,28.96l46.054-46.051a7.049,7.049,0,1,1,9.968,9.969l-15.666,15.667a11.078,11.078,0,0,0,15.666,15.667L449.737,101.8a29.886,29.886,0,0,1,42.312,0l1.157,1.156L575.339,20.82S408.7,32.689,408.7,33.639" transform="translate(131.371 8.641)" fill="#e5e7e9"/>
        <path id="Path_27" data-name="Path 27" d="M447.071,108.037l-6.5-6.308s69.716-78.857,71.352-80.494,50.225,5.294,50.225,5.294l-77.457,80.827a26.523,26.523,0,0,1-37.619.682" transform="translate(182.85 8.709)" fill="#e5e7e9"/>
      </g>
    </g>
    <path id="Path_28" data-name="Path 28" d="M785.094,484.842A40.743,40.743,0,1,1,744.351,444.1a40.743,40.743,0,0,1,40.743,40.743" transform="translate(517 278.158)" fill="#f3f4f5"/>
  </g>
</svg>
